<?xml version="1.0" encoding="UTF-8"?>
<svg id="Layer_1" xmlns="http://www.w3.org/2000/svg" version="1.1" xmlns:xlink="http://www.w3.org/1999/xlink" viewBox="0 0 222 221">
  <!-- Generator: Adobe Illustrator 30.1.0, SVG Export Plug-In . SVG Version: 2.1.1 Build 136)  -->
  <defs>
    <style>
      .st0 {
        fill: none;
      }

      .st1 {
        fill: #ebe7dd;
        stroke: #000;
        stroke-width: 2px;
      }

      .st2 {
        clip-path: url(#clippath);
      }
    </style>
    <clipPath id="clippath">
      <rect class="st0" x=".49" width="220.54" height="220.54"/>
    </clipPath>
  </defs>
  <g class="st2">
    <g>
      <path class="st1" d="M110.76,1C50.41,1,1.49,49.92,1.49,110.27c0,8.8,1.04,17.36,3.01,25.56,2.25,9.37,5.7,18.27,10.18,26.53,10.06,18.52,24.81,31.84,43.31,41.93,15.52,8.47,33.84,15.25,52.77,15.25,27.59,0,52.79-10.22,72.02-27.09,22.84-20.03,37.25-49.42,37.25-82.18,0-19.68-5.2-38.15-14.31-54.09-2.7-4.73-5.74-9.24-9.1-13.49-5.5-6.98-11.78-14.95-18.8-20.41-6.18-4.81-12.95-7.28-20.09-10.69-6.64-3.17-11.27-3.64-18.57-5.42-8.34-2.04-19.45-5.17-28.41-5.17h.01ZM111.39,186.73c-29.74,0-56.03-19.41-67.97-44.61-2.15-4.53-3.85-9.31-5.05-14.29-1.36-5.63-3.65-11.72-3.65-17.77,0-7.41,2.65-14.36,4.66-21.12,4.91-16.46,15.36-30.53,29.19-40.05,11.99-8.26,26.53-13.1,42.19-13.1s30.59,4.97,42.68,13.43c4.03,2.82,9.65,5.1,13.04,8.65,3.74,3.91,5.18,9.16,8,13.81,6.83,11.25,10.76,24.46,10.76,38.59,0,10.07-.65,20.02-4.27,28.78-1.9,4.6-5.6,8.61-8.34,12.69-2.89,4.31-6.22,8.29-9.93,11.9-13.42,13.06-31.11,23.09-51.32,23.09h0Z"/>
      <path class="st1" d="M113.08,75.99c18.94,0,31.98,15.34,31.98,34.28,0,10.64-3.07,18.47-11.76,24.51-1.61,1.12-3.83,4.31-5.55,5.29-5.01,2.86-10.81,4.49-16.98,4.49-4.4,0-9.94-.88-13.71-2.53-5.05-2.22-8.02-5.78-11.44-10.17-5.01-6.43-7.97-14.69-7.97-23.33s7.1-19.41,15.06-25.21c6.17-4.49,12.11-7.33,20.38-7.33h-.01Z"/>
      <g>
        <path d="M69.83,19.01c1.66,0,2.61.57,2.87,1.71v.13c0,.75-.46,1.18-1.37,1.3l-1.29-.41c-1.32,0-2.48.64-3.49,1.92-.32.47-.48.95-.48,1.44v.13c0,.72.46,1.24,1.37,1.58.34.09.66.13.96.13,1.13,0,2.52-.46,4.17-1.37.25-.05.46-.07.62-.07.6,0,1.01.46,1.23,1.37,0,.52-.27.95-.82,1.3-1.94,1-3.72,1.51-5.34,1.51-2.06,0-3.58-.91-4.58-2.74-.23-.63-.35-1.24-.35-1.85v-.13c0-1.37.66-2.72,1.99-4.04,1.51-1.28,3.01-1.92,4.51-1.92Z"/>
        <path d="M76.83,19.35c.76,0,1.22.48,1.37,1.44-.32,2.49-.48,4.41-.48,5.74.05.32.07.51.07.54.12,0,1.01-.23,2.67-.68h.13c.58,0,.99.32,1.23.96.05.18.07.36.07.54,0,.94-1.41,1.6-4.24,1.99h-.13c-1.16,0-1.96-.59-2.39-1.78-.09-.45-.14-.86-.14-1.23v-.06c.05-4.13.24-6.41.54-6.84.29-.41.71-.62,1.24-.62h.06Z"/>
        <path d="M84.19,21.63c.81.11,1.21.56,1.21,1.38,0,.04,0,.09,0,.13l-.04,1.97c0,.62.05,1.84.15,3.66-.02.54-.46.86-1.32.96h-.14c-.33-.02-.67-.15-1.01-.4-.29-.29-.43-1.33-.43-3.12,0-.39.02-1.41.06-3.05.07-1.02.56-1.54,1.46-1.54h.07ZM84.42,17.81h.15c.88,0,1.43.4,1.63,1.2v.52c-.18,1.04-.68,1.56-1.49,1.56h-.45c-.95-.15-1.42-.69-1.42-1.63.18-1.09.71-1.64,1.56-1.64Z"/>
        <path d="M92.44,19.01c1.66,0,2.61.57,2.87,1.71v.13c0,.75-.46,1.18-1.37,1.3l-1.29-.41c-1.32,0-2.48.64-3.49,1.92-.32.47-.48.95-.48,1.44v.13c0,.72.46,1.24,1.37,1.58.34.09.66.13.96.13,1.13,0,2.52-.46,4.17-1.37.25-.05.46-.07.62-.07.6,0,1.01.46,1.23,1.37,0,.52-.27.95-.82,1.3-1.94,1-3.72,1.51-5.34,1.51-2.06,0-3.58-.91-4.58-2.74-.23-.63-.35-1.24-.35-1.85v-.13c0-1.37.66-2.72,1.99-4.04,1.51-1.28,3.01-1.92,4.51-1.92Z"/>
        <path d="M99.21,19.21c1.16.02,1.73.52,1.73,1.49,0,.11,0,.22-.02.34-.04.29-.05.53-.05.73,0,.48.1.72.29.72.06,0,.14-.03.22-.08.45-.28,1.09-.94,1.91-1.97.82-1.04,1.61-1.55,2.36-1.55h0c.75,0,1.17.45,1.27,1.35v.08c0,.91-1.54,2.5-4.63,4.78.86.74,1.79,1.37,2.79,1.88s1.53,1.11,1.58,1.82c-.16.91-.66,1.37-1.5,1.37-.48,0-2.05-.98-4.72-2.94-.11,1.14-.27,1.94-.48,2.38-.18.38-.51.57-.99.57-.08,0-.16,0-.24-.01-.71,0-1.14-.46-1.3-1.37.37-2.45.55-4.5.55-6.15v-1.85c0-.89.41-1.42,1.23-1.58Z"/>
        <path d="M117.25,18.74h.62c1.41,0,2.28.12,2.61.35.35.25.53.59.53,1.02v.28c0,.6-.43.98-1.29,1.16h-.07c-.77,0-1.66-.02-2.67-.06-1.05.07-1.61.21-1.68.39-.05.11-.07.24-.07.38,0,.1.01.2.04.32.05.27,1.15.41,3.29.41.71,0,1.14.46,1.3,1.37-.16.91-.61,1.37-1.37,1.37h-2.74v.07c.27,1.48.41,2.49.41,3.01-.24.96-.72,1.44-1.44,1.44h-.07c-.57,0-1.01-.34-1.29-1.03,0-.48-.25-2.44-.76-5.88v-.82c0-1.66.62-2.76,1.85-3.29.77-.32,1.71-.47,2.81-.47Z"/>
        <path d="M126.46,19.42c1.57,0,2.92,1.07,4.04,3.22.23.63.35,1.24.35,1.85v.28c0,1.54-.75,2.86-2.26,3.96-.94.59-1.94.89-3.01.89h-.48c-2.03,0-3.49-.87-4.37-2.6-.18-.5-.3-1.04-.35-1.64,0-1.86.62-3.32,1.85-4.37s2.64-1.58,4.22-1.58ZM126.76,22.4c-.29-.1-.58-.15-.86-.15-.57,0-1.11.21-1.61.63-.74.62-1.11,1.43-1.11,2.42v.21c0,.76.62,1.21,1.85,1.37h.62c1.64-.21,2.46-.98,2.46-2.32,0-1.13-.45-1.85-1.35-2.15Z"/>
        <path d="M135.59,18.87c2.06,0,3.49,1,4.31,3.01.09.34.14.66.14.96,0,1.38-.75,2.54-2.26,3.49,1.07.6,1.66,1.03,1.78,1.3.09.34.13.54.13.62,0,.71-.46,1.14-1.37,1.29-.78,0-1.99-.77-3.62-2.32l-.14-.07c.05.45.07.79.07,1.03,0,1.13-.5,1.77-1.51,1.92-.77,0-1.22-.46-1.37-1.37,0-.21.02-.44.07-.68-.14-1.43-.25-3.09-.35-4.99,0-2.07.62-3.32,1.85-3.76.82-.27,1.57-.41,2.26-.41ZM134.32,22.88s0,.03,0,.04c0,.77.38,1.15,1.15,1.15s1.26-.35,1.46-1.06c.04-.12.05-.23.05-.34,0-.5-.4-.78-1.2-.86-.1,0-.19-.01-.28-.01-.78,0-1.17.36-1.18,1.07Z"/>
        <path d="M148.67,19.66c.1-.91.29-1.45.56-1.61s.59-.25.95-.25h.13c.62,0,.98.14,1.07.43.07.21.1.43.1.66,0,.09,0,.18-.02.28,1.25.08,2.09.6,2.52,1.56.09.32.13.59.13.82-.16,1.05-.68,1.58-1.57,1.58-.82-.23-1.23-.62-1.23-1.17h-.34c-1.19,0-2.01.48-2.46,1.44,3.09.38,4.91.91,5.47,1.58.68.49,1.03,1.04,1.03,1.64v.41c0,1.49-1.22,2.54-3.67,3.14v.12c0,.96-.35,1.46-1.05,1.51-.15.01-.29.02-.42.02-.49,0-.81-.08-.95-.23-.18-.19-.29-.38-.33-.58-.03-.15-.05-.29-.05-.43,0-.04,0-.09,0-.13h-.24c-1.09-.12-1.64-.6-1.64-1.44.16-.91.59-1.37,1.29-1.37h1.51c.96,0,1.8-.21,2.53-.62,0-.27-1.39-.57-4.17-.89-1.41-.47-2.12-1.29-2.12-2.46v-.21c0-1.25.78-2.41,2.33-3.49.21-.12.42-.22.63-.31Z"/>
      </g>
      <g>
        <path d="M16.65,152.89c0-1.66.57-2.61,1.71-2.87h.13c.75,0,1.18.46,1.3,1.37l-.41,1.29c0,1.32.64,2.48,1.92,3.49.47.32.95.48,1.44.48h.13c.72,0,1.24-.46,1.58-1.37.09-.34.13-.66.13-.96,0-1.13-.46-2.52-1.37-4.17-.05-.25-.07-.46-.07-.62,0-.6.46-1.01,1.37-1.23.52,0,.95.27,1.3.82,1,1.94,1.51,3.72,1.51,5.34,0,2.06-.91,3.58-2.74,4.58-.63.23-1.24.35-1.85.35h-.13c-1.37,0-2.72-.66-4.04-1.99-1.28-1.51-1.92-3.01-1.92-4.51Z"/>
        <path d="M17,145.89c0-.76.48-1.22,1.44-1.37,2.49.32,4.41.48,5.74.48.32-.05.51-.07.54-.07,0-.12-.23-1.01-.68-2.67v-.13c0-.58.32-.99.96-1.23.18-.05.36-.07.54-.07.94,0,1.6,1.41,1.99,4.24v.13c0,1.16-.59,1.96-1.78,2.39-.45.09-.86.14-1.23.14h-.06c-4.13-.05-6.41-.24-6.84-.54-.41-.29-.62-.71-.62-1.24v-.06Z"/>
        <path d="M15.45,138.3v-.15c0-.88.4-1.43,1.2-1.63h.52c1.04.18,1.56.68,1.56,1.49v.45c-.15.95-.69,1.42-1.63,1.42-1.09-.18-1.64-.71-1.64-1.56ZM19.27,138.53c.11-.81.56-1.21,1.38-1.21.04,0,.09,0,.13,0l1.97.04c.62,0,1.84-.05,3.66-.15.54.02.86.46.96,1.32v.14c-.02.33-.15.67-.4,1.01-.29.29-1.33.43-3.12.43-.39,0-1.41-.02-3.05-.06-1.02-.07-1.54-.56-1.54-1.46v-.07Z"/>
        <path d="M16.65,130.28c0-1.66.57-2.61,1.71-2.87h.13c.75,0,1.18.46,1.3,1.37l-.41,1.29c0,1.32.64,2.48,1.92,3.49.47.32.95.48,1.44.48h.13c.72,0,1.24-.46,1.58-1.37.09-.34.13-.66.13-.96,0-1.13-.46-2.52-1.37-4.17-.05-.25-.07-.46-.07-.62,0-.6.46-1.01,1.37-1.23.52,0,.95.27,1.3.82,1,1.94,1.51,3.72,1.51,5.34,0,2.06-.91,3.58-2.74,4.58-.63.23-1.24.35-1.85.35h-.13c-1.37,0-2.72-.66-4.04-1.99-1.28-1.51-1.92-3.01-1.92-4.51Z"/>
        <path d="M16.85,123.52c.02-1.16.52-1.73,1.49-1.73.11,0,.22,0,.34.02.29.04.53.05.73.05.48,0,.72-.1.72-.29,0-.06-.03-.14-.08-.22-.28-.45-.94-1.09-1.97-1.91-1.04-.82-1.55-1.61-1.55-2.36h0c0-.76.45-1.18,1.35-1.27h.08c.91,0,2.5,1.54,4.78,4.63.74-.86,1.37-1.79,1.88-2.79s1.11-1.53,1.82-1.58c.91.16,1.37.66,1.37,1.5,0,.48-.98,2.05-2.94,4.72,1.14.11,1.94.27,2.38.48.38.18.57.51.57.99,0,.08,0,.16-.01.24,0,.71-.46,1.14-1.37,1.3-2.45-.37-4.5-.55-6.15-.55h-1.85c-.89,0-1.42-.41-1.58-1.23Z"/>
        <path d="M16.38,105.48v-.62c0-1.41.12-2.28.35-2.61.25-.35.59-.53,1.02-.53h.28c.6,0,.98.43,1.16,1.29v.07c0,.77-.02,1.66-.06,2.67.07,1.05.21,1.61.39,1.68.11.05.24.07.38.07.1,0,.2-.01.32-.04.27-.05.41-1.15.41-3.29,0-.71.46-1.14,1.37-1.3.91.16,1.37.61,1.37,1.37v2.74h.07c1.48-.27,2.49-.41,3.01-.41.96.24,1.44.72,1.44,1.44v.07c0,.57-.34,1.01-1.03,1.29-.48,0-2.44.25-5.88.76h-.82c-1.66,0-2.76-.62-3.29-1.85-.32-.77-.47-1.71-.47-2.81Z"/>
        <path d="M17.06,96.26c0-1.57,1.07-2.92,3.22-4.04.63-.23,1.24-.35,1.85-.35h.28c1.54,0,2.86.75,3.96,2.26.59.94.89,1.94.89,3.01v.48c0,2.03-.87,3.49-2.6,4.37-.5.18-1.04.3-1.64.35-1.86,0-3.32-.62-4.37-1.85s-1.58-2.64-1.58-4.22ZM20.04,95.96c-.1.29-.15.58-.15.86,0,.57.21,1.11.63,1.61.62.74,1.43,1.11,2.42,1.11h.21c.76,0,1.21-.62,1.37-1.85v-.62c-.21-1.64-.98-2.46-2.32-2.46-1.13,0-1.85.45-2.15,1.35Z"/>
        <path d="M16.51,87.13c0-2.06,1-3.49,3.01-4.31.34-.09.66-.14.96-.14,1.38,0,2.54.75,3.49,2.26.6-1.07,1.03-1.66,1.3-1.78.34-.09.54-.13.62-.13.71,0,1.14.46,1.29,1.37,0,.78-.77,1.99-2.32,3.62l-.07.14c.45-.05.79-.07,1.03-.07,1.13,0,1.77.5,1.92,1.51,0,.77-.46,1.22-1.37,1.37-.21,0-.44-.02-.68-.07-1.43.14-3.09.25-4.99.35-2.07,0-3.32-.62-3.76-1.85-.27-.82-.41-1.57-.41-2.26ZM20.52,88.4s.03,0,.04,0c.77,0,1.15-.38,1.15-1.15s-.35-1.26-1.06-1.46c-.12-.04-.23-.05-.34-.05-.5,0-.78.4-.86,1.2,0,.1-.01.19-.01.28,0,.78.36,1.17,1.07,1.18Z"/>
        <path d="M17.3,74.05c-.91-.1-1.45-.29-1.61-.56s-.25-.59-.25-.95v-.13c0-.62.14-.98.43-1.07.21-.07.43-.1.66-.1.09,0,.18,0,.28.02.08-1.25.6-2.09,1.56-2.52.32-.09.59-.13.82-.13,1.05.16,1.58.68,1.58,1.57-.23.82-.62,1.23-1.17,1.23v.34c0,1.19.48,2.01,1.44,2.46.38-3.09.91-4.91,1.58-5.47.49-.68,1.04-1.03,1.64-1.03h.41c1.49,0,2.54,1.22,3.14,3.67h.12c.96,0,1.46.35,1.51,1.05.01.15.02.29.02.42,0,.49-.08.81-.23.95-.19.18-.38.29-.58.33-.15.03-.29.05-.43.05-.04,0-.09,0-.13,0v.24c-.12,1.09-.6,1.64-1.44,1.64-.91-.16-1.37-.59-1.37-1.29v-1.51c0-.96-.21-1.8-.62-2.53-.27,0-.57,1.39-.89,4.17-.47,1.41-1.29,2.12-2.46,2.12h-.21c-1.25,0-2.41-.78-3.49-2.33-.12-.21-.22-.42-.31-.63Z"/>
      </g>
      <g>
        <path d="M203.06,71.3c0,1.66-.57,2.61-1.71,2.87h-.13c-.75,0-1.18-.46-1.3-1.37l.41-1.29c0-1.32-.64-2.48-1.92-3.49-.47-.32-.95-.48-1.44-.48h-.13c-.72,0-1.24.46-1.58,1.37-.09.34-.13.66-.13.96,0,1.13.46,2.52,1.37,4.17.05.25.07.46.07.62,0,.6-.46,1.01-1.37,1.23-.52,0-.95-.27-1.3-.82-1-1.94-1.51-3.72-1.51-5.34,0-2.06.91-3.58,2.74-4.58.63-.23,1.24-.35,1.85-.35h.13c1.37,0,2.72.66,4.04,1.99,1.28,1.51,1.92,3.01,1.92,4.51Z"/>
        <path d="M202.71,78.31c0,.76-.48,1.22-1.44,1.37-2.49-.32-4.41-.48-5.74-.48-.32.05-.51.07-.54.07,0,.12.23,1.01.68,2.67v.13c0,.58-.32.99-.96,1.23-.18.05-.36.07-.54.07-.94,0-1.6-1.41-1.99-4.24v-.13c0-1.16.59-1.96,1.78-2.39.45-.09.86-.14,1.23-.14h.06c4.13.05,6.41.24,6.84.54.41.29.62.71.62,1.24v.06Z"/>
        <path d="M200.44,85.66c-.11.81-.56,1.21-1.38,1.21-.04,0-.09,0-.13,0l-1.97-.04c-.62,0-1.84.05-3.66.15-.54-.02-.86-.46-.96-1.32v-.14c.02-.33.15-.67.4-1.01.29-.29,1.33-.43,3.12-.43.39,0,1.41.02,3.05.06,1.02.07,1.54.56,1.54,1.46v.07ZM204.26,85.89v.15c0,.88-.4,1.43-1.2,1.63h-.52c-1.04-.18-1.56-.68-1.56-1.49v-.45c.15-.95.69-1.42,1.63-1.42,1.09.18,1.64.71,1.64,1.56Z"/>
        <path d="M203.06,93.92c0,1.66-.57,2.61-1.71,2.87h-.13c-.75,0-1.18-.46-1.3-1.37l.41-1.29c0-1.32-.64-2.48-1.92-3.49-.47-.32-.95-.48-1.44-.48h-.13c-.72,0-1.24.46-1.58,1.37-.09.34-.13.66-.13.96,0,1.13.46,2.52,1.37,4.17.05.25.07.46.07.62,0,.6-.46,1.01-1.37,1.23-.52,0-.95-.27-1.3-.82-1-1.94-1.51-3.72-1.51-5.34,0-2.06.91-3.58,2.74-4.58.63-.23,1.24-.35,1.85-.35h.13c1.37,0,2.72.66,4.04,1.99,1.28,1.51,1.92,3.01,1.92,4.51Z"/>
        <path d="M202.85,100.68c-.02,1.16-.52,1.73-1.49,1.73-.11,0-.22,0-.34-.02-.29-.04-.53-.05-.73-.05-.48,0-.72.1-.72.29,0,.06.03.14.08.22.28.45.94,1.09,1.97,1.91,1.04.82,1.55,1.61,1.55,2.36h0c0,.76-.45,1.18-1.35,1.27h-.08c-.91,0-2.5-1.54-4.78-4.63-.74.86-1.37,1.79-1.88,2.79s-1.11,1.53-1.82,1.58c-.91-.16-1.37-.66-1.37-1.5,0-.48.98-2.05,2.94-4.72-1.14-.11-1.94-.27-2.38-.48-.38-.18-.57-.51-.57-.99,0-.08,0-.16.01-.24,0-.71.46-1.14,1.37-1.3,2.45.37,4.5.55,6.15.55h1.85c.89,0,1.42.41,1.58,1.23Z"/>
        <path d="M203.33,118.72v.62c0,1.41-.12,2.28-.35,2.61-.25.35-.59.53-1.02.53h-.28c-.6,0-.98-.43-1.16-1.29v-.07c0-.77.02-1.66.06-2.67-.07-1.05-.21-1.61-.39-1.68-.11-.05-.24-.07-.38-.07-.1,0-.2.01-.32.04-.27.05-.41,1.15-.41,3.29,0,.71-.46,1.14-1.37,1.3-.91-.16-1.37-.61-1.37-1.37v-2.74h-.07c-1.48.27-2.49.41-3.01.41-.96-.24-1.44-.72-1.44-1.44v-.07c0-.57.34-1.01,1.03-1.29.48,0,2.44-.25,5.88-.76h.82c1.66,0,2.76.62,3.29,1.85.32.77.47,1.71.47,2.81Z"/>
        <path d="M202.65,127.93c0,1.57-1.07,2.92-3.22,4.04-.63.23-1.24.35-1.85.35h-.28c-1.54,0-2.86-.75-3.96-2.26-.59-.94-.89-1.94-.89-3.01v-.48c0-2.03.87-3.49,2.6-4.37.5-.18,1.04-.3,1.64-.35,1.86,0,3.32.62,4.38,1.85s1.58,2.64,1.58,4.22ZM199.66,128.24c.1-.29.15-.58.15-.86,0-.57-.21-1.11-.63-1.61-.62-.74-1.43-1.11-2.42-1.11h-.21c-.76,0-1.21.62-1.37,1.85v.62c.21,1.64.98,2.46,2.32,2.46,1.13,0,1.85-.45,2.15-1.35Z"/>
        <path d="M203.19,137.07c0,2.06-1,3.49-3.01,4.31-.34.09-.66.14-.96.14-1.38,0-2.54-.75-3.49-2.26-.6,1.07-1.03,1.66-1.3,1.78-.34.09-.54.13-.62.13-.71,0-1.14-.46-1.29-1.37,0-.78.77-1.99,2.32-3.62l.07-.14c-.45.05-.79.07-1.03.07-1.13,0-1.77-.5-1.92-1.51,0-.77.46-1.22,1.37-1.37.21,0,.44.02.68.07,1.43-.14,3.09-.25,4.99-.35,2.07,0,3.32.62,3.76,1.85.27.82.41,1.57.41,2.26ZM199.19,135.79s-.03,0-.04,0c-.77,0-1.15.38-1.15,1.15s.35,1.26,1.06,1.46c.12.04.23.05.34.05.5,0,.78-.4.86-1.2,0-.1.01-.19.01-.28,0-.78-.36-1.17-1.07-1.18Z"/>
        <path d="M202.41,150.14c.91.1,1.45.29,1.62.56s.25.59.25.95v.13c0,.62-.14.98-.43,1.07-.21.07-.43.1-.66.1-.09,0-.18,0-.28-.02-.08,1.25-.6,2.09-1.56,2.52-.32.09-.59.13-.82.13-1.05-.16-1.58-.68-1.58-1.57.23-.82.62-1.23,1.17-1.23v-.34c0-1.19-.48-2.01-1.44-2.46-.38,3.09-.91,4.91-1.58,5.47-.49.68-1.04,1.03-1.64,1.03h-.41c-1.49,0-2.54-1.22-3.14-3.67h-.12c-.96,0-1.46-.35-1.51-1.05-.01-.15-.02-.29-.02-.42,0-.49.08-.81.23-.95.19-.18.38-.29.58-.33.15-.03.29-.05.43-.05.04,0,.09,0,.13,0v-.24c.12-1.09.6-1.64,1.44-1.64.91.16,1.37.59,1.37,1.29v1.51c0,.96.21,1.8.62,2.53.27,0,.57-1.39.89-4.17.47-1.41,1.29-2.12,2.46-2.12h.21c1.25,0,2.41.78,3.49,2.33.12.21.22.42.31.63Z"/>
      </g>
      <g>
        <path d="M150.56,205.22c-1.66,0-2.61-.57-2.87-1.71v-.13c0-.75.46-1.18,1.37-1.3l1.29.41c1.32,0,2.48-.64,3.49-1.92.32-.47.48-.95.48-1.44v-.13c0-.72-.46-1.24-1.37-1.58-.34-.09-.66-.13-.96-.13-1.13,0-2.52.46-4.17,1.37-.25.05-.46.07-.62.07-.6,0-1.01-.46-1.23-1.37,0-.52.27-.95.82-1.3,1.94-1,3.72-1.51,5.34-1.51,2.06,0,3.58.91,4.58,2.74.23.63.35,1.24.35,1.85v.13c0,1.37-.66,2.72-1.99,4.04-1.51,1.28-3.01,1.92-4.51,1.92Z"/>
        <path d="M143.55,204.88c-.76,0-1.22-.48-1.37-1.44.32-2.49.48-4.41.48-5.74-.05-.32-.07-.51-.07-.54-.12,0-1.01.23-2.67.68h-.13c-.58,0-.99-.32-1.23-.96-.05-.18-.07-.36-.07-.54,0-.94,1.41-1.6,4.24-1.99h.13c1.16,0,1.96.59,2.39,1.78.09.45.14.86.14,1.23v.06c-.05,4.13-.24,6.41-.54,6.84-.29.41-.71.62-1.24.62h-.06Z"/>
        <path d="M135.97,206.42h-.15c-.88,0-1.43-.4-1.63-1.2v-.52c.18-1.04.68-1.56,1.49-1.56h.45c.95.15,1.42.69,1.42,1.63-.18,1.09-.71,1.64-1.56,1.64ZM136.2,202.6c-.81-.11-1.21-.56-1.21-1.38,0-.04,0-.09,0-.13l.04-1.97c0-.62-.05-1.84-.15-3.66.02-.54.46-.86,1.32-.96h.14c.33.02.67.15,1.01.4.29.29.43,1.33.43,3.12,0,.39-.02,1.41-.06,3.05-.07,1.02-.56,1.54-1.46,1.54h-.07Z"/>
        <path d="M127.94,205.22c-1.66,0-2.61-.57-2.87-1.71v-.13c0-.75.46-1.18,1.37-1.3l1.29.41c1.32,0,2.48-.64,3.49-1.92.32-.47.48-.95.48-1.44v-.13c0-.72-.46-1.24-1.37-1.58-.34-.09-.66-.13-.96-.13-1.13,0-2.52.46-4.17,1.37-.25.05-.46.07-.62.07-.6,0-1.01-.46-1.23-1.37,0-.52.27-.95.82-1.3,1.94-1,3.72-1.51,5.34-1.51,2.06,0,3.58.91,4.58,2.74.23.63.35,1.24.35,1.85v.13c0,1.37-.66,2.72-1.99,4.04-1.51,1.28-3.01,1.92-4.51,1.92Z"/>
        <path d="M121.18,205.02c-1.16-.02-1.73-.52-1.73-1.49,0-.11,0-.22.02-.34.04-.29.05-.53.05-.73,0-.48-.1-.72-.29-.72-.06,0-.14.03-.22.08-.45.28-1.09.94-1.91,1.97-.82,1.04-1.61,1.55-2.36,1.55h0c-.75,0-1.17-.45-1.27-1.35v-.08c0-.91,1.54-2.5,4.63-4.78-.86-.74-1.79-1.37-2.79-1.88s-1.53-1.11-1.58-1.82c.16-.91.66-1.37,1.5-1.37.48,0,2.05.98,4.72,2.94.11-1.14.27-1.94.48-2.38.18-.38.51-.57.99-.57.08,0,.16,0,.24.01.71,0,1.14.46,1.3,1.37-.37,2.45-.55,4.5-.55,6.15v1.85c0,.89-.41,1.42-1.23,1.58Z"/>
        <path d="M103.14,205.49h-.62c-1.41,0-2.28-.12-2.61-.35-.35-.25-.53-.59-.53-1.02v-.28c0-.6.43-.98,1.29-1.16h.07c.77,0,1.66.02,2.67.06,1.05-.07,1.61-.21,1.68-.39.05-.11.07-.24.07-.38,0-.1-.01-.2-.04-.32-.05-.27-1.15-.41-3.29-.41-.71,0-1.14-.46-1.3-1.37.16-.91.61-1.37,1.37-1.37h2.74v-.07c-.27-1.48-.41-2.49-.41-3.01.24-.96.72-1.44,1.44-1.44h.07c.57,0,1.01.34,1.29,1.03,0,.48.25,2.44.76,5.88v.82c0,1.66-.62,2.76-1.85,3.29-.77.32-1.71.47-2.81.47Z"/>
        <path d="M93.93,204.81c-1.57,0-2.92-1.07-4.04-3.22-.23-.63-.35-1.24-.35-1.85v-.28c0-1.54.75-2.86,2.26-3.96.94-.59,1.94-.89,3.01-.89h.48c2.03,0,3.49.87,4.37,2.6.18.5.3,1.04.35,1.64,0,1.86-.62,3.32-1.85,4.38s-2.64,1.58-4.22,1.58ZM93.62,201.83c.29.1.58.15.86.15.57,0,1.11-.21,1.61-.63.74-.62,1.11-1.43,1.11-2.42v-.21c0-.76-.62-1.21-1.85-1.37h-.62c-1.64.21-2.46.98-2.46,2.32,0,1.13.45,1.85,1.35,2.15Z"/>
        <path d="M84.79,205.36c-2.06,0-3.49-1-4.31-3.01-.09-.34-.14-.66-.14-.96,0-1.38.75-2.54,2.26-3.49-1.07-.6-1.66-1.03-1.78-1.3-.09-.34-.13-.54-.13-.62,0-.71.46-1.14,1.37-1.29.78,0,1.99.77,3.62,2.32l.14.07c-.05-.45-.07-.79-.07-1.03,0-1.13.5-1.77,1.51-1.92.77,0,1.22.46,1.37,1.37,0,.21-.02.44-.07.68.14,1.43.25,3.09.35,4.99,0,2.07-.62,3.32-1.85,3.76-.82.27-1.57.41-2.26.41ZM86.06,201.35s0-.03,0-.04c0-.77-.38-1.15-1.15-1.15s-1.26.35-1.46,1.06c-.04.12-.05.23-.05.34,0,.5.4.78,1.2.86.1,0,.19.01.28.01.78,0,1.17-.36,1.18-1.07Z"/>
        <path d="M71.72,204.57c-.1.91-.29,1.45-.56,1.62s-.59.25-.95.25h-.13c-.62,0-.98-.14-1.07-.43-.07-.21-.1-.43-.1-.66,0-.09,0-.18.02-.28-1.25-.08-2.09-.6-2.52-1.56-.09-.32-.13-.59-.13-.82.16-1.05.68-1.58,1.57-1.58.82.23,1.23.62,1.23,1.17h.34c1.19,0,2.01-.48,2.46-1.44-3.09-.38-4.91-.91-5.47-1.58-.68-.49-1.03-1.04-1.03-1.64v-.41c0-1.49,1.22-2.54,3.67-3.14v-.12c0-.96.35-1.46,1.05-1.51.15-.01.29-.02.42-.02.49,0,.81.08.95.23.18.19.29.38.33.58.03.15.05.29.05.43,0,.04,0,.09,0,.13h.24c1.09.12,1.64.6,1.64,1.44-.16.91-.59,1.37-1.29,1.37h-1.51c-.96,0-1.8.21-2.53.62,0,.27,1.39.57,4.17.89,1.41.47,2.12,1.29,2.12,2.46v.21c0,1.25-.78,2.41-2.33,3.49-.21.12-.42.22-.63.31Z"/>
      </g>
    </g>
  </g>
</svg>