<?xml version="1.0" encoding="UTF-8"?>
<svg id="Layer_1" xmlns="http://www.w3.org/2000/svg" version="1.1" viewBox="0 0 485 151">
  <!-- Generator: Adobe Illustrator 30.1.0, SVG Export Plug-In . SVG Version: 2.1.1 Build 136)  -->
  <defs>
    <style>
      .st0 {
        fill: #fff;
      }

      .st1 {
        isolation: isolate;
      }
    </style>
  </defs>
  <g class="st1">
    <path class="st0" d="M155.01,36.24l-10.19,34.56-5.72,25.36-5.22,28.09-2.24,1.86-6.71-1.49-38.78,2.36-1.24-.99-7.33-43.13-1.49-2.49-1.24,3.85-5.22,24.74v16.16l-.75,1.86-12.43,1.24-15.91-1.12-14.54,1.86-1.99-1.37-2.49-14.67-2.61-7.33L5.59,55.75l-.99-8.7-.87-10.81.87-1.37,12.55-.5,13.3.99-.99,14.67,4.72,22.5,2.73,10.81,1.62,8.08,19.64-57.92h10.19l18.89-2.73,1.86,1.37.87,5.1,10.94,32.19,4.35,14.17,2.24-7.71,3.85-17.9,2.61-20.39,1.74-6.34,7.96-.99,2.73-.5,28.59.5v5.97Z"/>
    <path class="st0" d="M275.08,73.28l-.99,23-1.87,5.97-1.87,2.86-1.37,3.6-8.7,11.06-12.06,6.96-27.6,1.86-21.26.87h-8.83l-10.07-5.47-14.79-15.29-3.23-4.1.5-18.02,2.24-11.06,1.86-11.93,7.83-19.02,5.59-5.97,10.57-8.33,5.59-1.37,23.99-.37,15.66.37,16.16,4.6,5.47,2.86,6.96,5.47,4.6,8.83,4.1,12.43,1.49,10.19ZM238.16,55.75l-4.6-1.86-21.26-.99-13.92,2.36-2.73,12.43-2.73,17.53v7.33l22.62-.37,13.8-.99,8.33-2.73v-2.36l.5-30.33Z"/>
    <path class="st0" d="M374.77,50.91l-9.7,2.73-18.03.99-25.85-1.49-8.33.5v3.11l.62,4.48,38.29,3.23,11.06.37,3.61,2.36v14.92l-1.37,3.23h-.37l-8.33,2.36-36.05.87-4.1,1.37c0,4.14-.27,10.11-.81,17.9-.54,7.79-.81,13.42-.81,16.91-2.15,0-7.23.12-15.23.37-8,.25-12.82.37-14.48.37l-1.49-1.37-.87-17.53.87-12.43.99-29.58-.99-23.99,1.49-13.3,5.47-1.37,22.62.87,18.89.5,43.38,2.73.87,1.37-.5,17.28-.87,2.24Z"/>
    <path class="st0" d="M478.94,89.94l1.74,33.81c-2.24,0-12.76.08-31.57.25-13.09.17-23.41.01-30.95-.46l-14.29-.91-16.16.87-4.1-7.46,2.36-25.73v-6.96l1.37-26.35-.99-21.01-.87-2.86.5-2.24,2.24-2.36h21.75l6.46-1.86,7.46,1.62,2.61,51.34v14.29l52.46-3.98Z"/>
  </g>
</svg>