<?xml version="1.0" encoding="UTF-8"?>
<svg id="Layer_1" xmlns="http://www.w3.org/2000/svg" version="1.1" viewBox="0 0 1008 189">
  <!-- Generator: Adobe Illustrator 30.1.0, SVG Export Plug-In . SVG Version: 2.1.1 Build 136)  -->
  <defs>
    <style>
      .st0 {
        fill: #732222;
      }
    </style>
  </defs>
  <path class="st0" d="M46.58,39.3l.59,8.39v1.4l3.83,1.25,8.24.52h6.99l.59-4.42-.37-8.24-.66-7.36.37-18.18,10.16-.29,14.79.29-2.58,21.49.22,7.06.52,6.62-1.1,10.6-2.21,2.43-9.05,8.54-6.03,3.24h-5.15l-9.49-.22-16.41-1.03-7.06-4.12-5.23-6.55-.81-2.21-1.1-1.62-1.1-3.53-.81-12,22.89-2.06Z"/>
  <path class="st0" d="M162.2,40.48l-.59,13.61-1.1,3.53-1.1,1.69-.81,2.13-5.15,6.55-7.14,4.12-16.34,1.1-12.58.52h-5.23l-5.96-3.24-8.76-9.05-1.91-2.43.29-10.67,1.32-6.55,1.1-7.06,4.64-11.26,3.31-3.53,6.26-4.93,3.31-.81,14.2-.22,9.27.22,9.57,2.72,3.24,1.69,4.12,3.24,2.72,5.23,2.43,7.36.88,6.03ZM140.34,30.1l-2.72-1.1-12.58-.59-8.24,1.4-1.62,7.36-1.62,10.38v4.34l13.39-.22,8.17-.59,4.93-1.62v-1.4l.29-17.96Z"/>
  <path class="st0" d="M193.33,67.49l-.52.52-12,.29-14.2,1.1.52-5.45.81-15.31.29-18.84.52-1.4.59-15.01,1.1-.81,8.98,1.1,9.05.29,2.72,1.03,1.1,1.4-2.21,22.37,1.32,21.34.88,3.24,1.03,4.12Z"/>
  <path class="st0" d="M273.69,18.62l-1.4,15.23v4.12l-.81,15.6.52,11.48.59,1.62-.29,1.32-1.32,1.4h-12.88l-6.55,1.91-4.12-.59-6.26-6.77-22.67-23.77h-.52l-1.1,6.84.29,16.93,1.03,2.72v1.32l-1.03,1.1-7.43.81-11.48,1.4-.52-.29,1.1-2.13,2.21-29.51v-5.74l.81-9.86-.29-9.57,14.2.81,10.67-.81.22-.22,3.02,4.05,3.02,4.42,3.53,4.64,5.74,8.17,5.45,6.03.88-1.1V15.02l-.29-.22.52-.81,4.64.22,8.46.59,9.57-.59,2.5,4.42Z"/>
  <path class="st0" d="M370.83,18.92l-1.4,13.03v3.24l-.51.52-21.05-.81v2.35l.74,26.27.52,2.5-.15,5.23-2.8-.29-8.09.29-6.33-1.24-2.06-.16h-1.1l-.59-.59,1.69-12.95.81-13.25.22-8.39-1.62-1.4-2.43-.22-10.52-1.1h-5.96l-.59.22-.52-.52.52-3.55.81-11.38-.37-1.7.37-1.33,21.42.88,15.67-.52,16.56.29,6.48.66.29,3.9Z"/>
  <path class="st0" d="M444.05,67.49l-.52.52-12,.29-10.16,1.4-3.31-2.65-.22-18.4-3.3-1.1h-22.02l-1.1.81v19.43l-9.91.22-3.25.88h-2.22l-.74-.88.74-15.01v-18.54l.59-1.1-.59-6.84.81-11.48h3.31l7.06.88,4.12.74,1.03,1.4-1.32,12.07,2.21,1.03,15.31-.52,10.38-.81.52-1.4.59-15.01,1.1-.81,8.98,1.1,8.98.29,2.8,1.03,1.03,1.4-2.13,22.37,1.32,21.34.81,3.24,1.1,4.12Z"/>
  <path class="st0" d="M507.71,59.54l-.22,8.76-.59.81-25.68,1.62-14.72.29-13.39.59-3.24-.88-.88-7.87.59-14.2-.59-17.51-.52-7.36.52-10.38.88-.81,19.87,1.1h13.17l17.74,1.1.52,3.24.29,12.29-3.24.81-27.08-1.1-2.8.21-.15,1.71v2.49h2.78l21.24.52,4.91,1.4h.22l.81,1.91v8.83l-2.13,1.4-6.55.29-22.67,1.91-.81,2.28v1.91l2.72.81,2.13-.52,30.61,1.4,5.74,1.62.52,1.32Z"/>
  <path class="st0" d="M113.26,106.86l-6.03,20.46-3.39,15.01-3.09,16.63-1.32,1.1-3.97-.88-22.96,1.4-.74-.59-4.34-25.54-.88-1.47-.74,2.28-3.09,14.64v9.57l-.44,1.1-7.36.74-9.42-.66-8.61,1.1-1.18-.81-1.47-8.68-1.55-4.34-7.87-29.51-.59-5.15-.52-6.4.52-.81,7.43-.29,7.87.59-.59,8.68,2.8,13.32,1.62,6.4.96,4.78,11.63-34.29h6.03l11.19-1.62,1.1.81.52,3.02,6.48,19.06,2.58,8.39,1.32-4.56,2.28-10.6,1.55-12.07,1.03-3.75,4.71-.59,1.62-.29,16.93.29v3.53Z"/>
  <path class="st0" d="M184.35,128.79l-.59,13.61-1.1,3.53-1.1,1.69-.81,2.13-5.15,6.55-7.14,4.12-16.34,1.1-12.58.51h-5.23l-5.96-3.24-8.76-9.05-1.91-2.43.29-10.67,1.32-6.55,1.1-7.06,4.64-11.26,3.31-3.53,6.26-4.93,3.31-.81,14.2-.22,9.27.22,9.57,2.72,3.24,1.69,4.12,3.24,2.72,5.22,2.43,7.36.88,6.04ZM162.49,118.41l-2.72-1.1-12.58-.59-8.24,1.4-1.62,7.36-1.62,10.38v4.34l13.39-.22,8.17-.59,4.93-1.62v-1.4l.29-17.96Z"/>
  <path class="st0" d="M243.37,115.54l-5.74,1.62-10.67.59-15.31-.88-4.93.29v1.84l.37,2.65,22.67,1.91,6.55.22,2.13,1.4v8.83l-.81,1.91h-.22l-4.93,1.4-21.34.51-2.43.81c0,2.45-.16,5.99-.48,10.6-.32,4.61-.48,7.95-.48,10.01-1.28,0-4.28.07-9.02.22-4.73.15-7.59.22-8.57.22l-.88-.81-.52-10.38.52-7.36.59-17.51-.59-14.2.88-7.87,3.24-.81,13.39.52,11.19.29,25.68,1.62.52.81-.29,10.23-.52,1.33Z"/>
  <path class="st0" d="M305.04,138.65l1.03,20.02c-1.32,0-7.56.05-18.69.15-7.75.1-13.86,0-18.32-.27l-8.46-.54-9.57.52-2.43-4.42,1.4-15.23v-4.12l.81-15.6-.59-12.44-.52-1.69.29-1.32,1.32-1.4h12.88l3.83-1.1,4.42.96,1.55,30.39v8.46l31.06-2.36Z"/>
  <path class="st0" d="M431.02,159.03l-16.93.29-3.09-.37-3.09-.96-1.18-3.31-1.4-11.19-.22-10.67h-1.91l-2.72,3.83-7.95,18.32-.52,3.02-1.1.81-11.19-1.62h-6.03l-6.26-15.9-2.5-5.45-5.74-13.1h-.22l-1.1,2.21-1.4,22.37.88,8.76-7.91.52-7.47-.29-.44-.81.44-6.25v-5.23l4.71-29.44,1.03-4.42.59-8.76,1.1-.81,8.98,1.4,9.05-1.1,9.49.52.59,1.1,1.1,9.57,4.93,15.01.52.81h1.1l12.58-25.61.81-.59,25.09,1.62,4.12-.81,1.1,1.1v16.63l1.03,32.01,1.1,3.24v3.53Z"/>
  <path class="st0" d="M502.11,128.79l-.59,13.61-1.1,3.53-1.1,1.69-.81,2.13-5.15,6.55-7.14,4.12-16.34,1.1-12.58.51h-5.23l-5.96-3.24-8.76-9.05-1.91-2.43.29-10.67,1.32-6.55,1.1-7.06,4.64-11.26,3.31-3.53,6.26-4.93,3.31-.81,14.2-.22,9.27.22,9.57,2.72,3.24,1.69,4.12,3.24,2.72,5.22,2.43,7.36.88,6.04ZM480.26,118.41l-2.72-1.1-12.58-.59-8.24,1.4-1.62,7.36-1.62,10.38v4.34l13.39-.22,8.17-.59,4.93-1.62v-1.4l.29-17.96Z"/>
  <path class="st0" d="M584.39,102.22l-2.5,4.64-10.38,23.77-4.34,12.88-3.02,11.19-2.43,2.21-33.63,1.91-1.1-.88v-1.91l-3.83-12.29-5.74-13.32-3.24-7.14-5.22-12.81-2.43-4.12v-1.1l18.54-2.21-.22,2.5.81,4.93,12.73,31.42,1.69,2.06,10.16-29.22,4.34-11.92,1.4-2.21,1.33.51,27.08.29v.81Z"/>
  <path class="st0" d="M648.04,147.85l-.22,8.76-.59.81-25.68,1.62-14.72.29-13.39.59-3.24-.88-.88-7.87.59-14.2-.59-17.51-.51-7.36.51-10.38.88-.81,19.87,1.1h13.17l17.74,1.1.52,3.24.29,12.29-3.24.81-27.08-1.1-2.8.21-.15,1.71v2.49h2.78l21.24.52,4.91,1.4h.22l.81,1.91v8.83l-2.13,1.4-6.55.29-22.67,1.91-.81,2.28v1.91l2.72.81,2.13-.51,30.61,1.4,5.74,1.62.52,1.32Z"/>
  <path class="st0" d="M742.02,159.03l-16.93.29-3.09-.37-3.09-.96-1.18-3.31-1.4-11.19-.22-10.67h-1.91l-2.72,3.83-7.95,18.32-.51,3.02-1.1.81-11.19-1.62h-6.03l-6.26-15.9-2.5-5.45-5.74-13.1h-.22l-1.1,2.21-1.4,22.37.88,8.76-7.91.52-7.47-.29-.44-.81.44-6.25v-5.23l4.71-29.44,1.03-4.42.59-8.76,1.1-.81,8.98,1.4,9.05-1.1,9.49.52.59,1.1,1.1,9.57,4.93,15.01.52.81h1.1l12.58-25.61.81-.59,25.1,1.62,4.12-.81,1.1,1.1v16.63l1.03,32.01,1.1,3.24v3.53Z"/>
  <path class="st0" d="M805.68,147.85l-.22,8.76-.59.81-25.68,1.62-14.72.29-13.39.59-3.24-.88-.88-7.87.59-14.2-.59-17.51-.51-7.36.51-10.38.88-.81,19.87,1.1h13.17l17.74,1.1.52,3.24.29,12.29-3.24.81-27.08-1.1-2.8.21-.15,1.71v2.49h2.78l21.24.52,4.91,1.4h.22l.81,1.91v8.83l-2.13,1.4-6.55.29-22.67,1.91-.81,2.28v1.91l2.72.81,2.13-.51,30.61,1.4,5.74,1.62.52,1.32Z"/>
  <path class="st0" d="M886.04,106.93l-1.4,15.23v4.12l-.81,15.6.52,11.48.59,1.62-.29,1.32-1.32,1.4h-12.88l-6.55,1.91-4.12-.59-6.25-6.77-22.67-23.77h-.52l-1.1,6.84.29,16.93,1.03,2.72v1.32l-1.03,1.1-7.43.81-11.48,1.4-.51-.29,1.1-2.13,2.21-29.51v-5.74l.81-9.86-.29-9.57,14.2.81,10.67-.81.22-.22,3.02,4.05,3.02,4.42,3.53,4.64,5.74,8.17,5.45,6.03.88-1.1v-25.17l-.29-.22.52-.81,4.64.22,8.46.59,9.57-.59,2.5,4.42Z"/>
  <path class="st0" d="M952.2,107.23l-1.4,13.03v3.24l-.51.51-21.05-.81v2.36l.74,26.27.51,2.5-.15,5.23-2.8-.29-8.09.29-6.33-1.24-2.06-.16h-1.1l-.59-.59,1.69-12.95.81-13.25.22-8.39-1.62-1.4-2.43-.22-10.52-1.1h-5.96l-.59.22-.51-.52.51-3.55.81-11.38-.37-1.7.37-1.33,21.42.88,15.68-.52,16.56.29,6.48.66.29,3.9Z"/>
  <path class="st0" d="M975.23,137.03l-.58.37-5.32-.07-9.7.74v-13.25l-.94-12.07-1.64-10.08,10.96-.22,8.32.15,2.5.74.96.88-3.24,14.28-1.33,18.54ZM958.67,143.21l5.22-1.47,6.4.29,4.42,3.46,1.77,4.56-2.43,3.46-3.9,2.28h-7.88l-4.78-3.9-.15-5.23,1.33-3.46Z"/>
</svg>