<?xml version="1.0" encoding="UTF-8"?>
<svg id="Layer_1" xmlns="http://www.w3.org/2000/svg" version="1.1" viewBox="0 0 309 118">
  <!-- Generator: Adobe Illustrator 30.1.0, SVG Export Plug-In . SVG Version: 2.1.1 Build 136)  -->
  <defs>
    <style>
      .st0 {
        fill: #310303;
      }

      .st1 {
        fill: none;
        stroke: #310303;
        stroke-linecap: round;
        stroke-linejoin: round;
        stroke-width: 1.86px;
      }
    </style>
  </defs>
  <path class="st1" d="M189.09,30.7c23.84.17,45.21.03,55.04-.59,21.46-1.34,52.27-.42,61.34-.1,1.28.05,2.16,1.35,1.83,2.58-1.2,4.42-3.2,14.56-1.52,28.92,2,17.09-.74,45.12-1.49,52.13-.1.94-.89,1.63-1.83,1.64L3.45,116.33c-1.06,0-1.9-.87-1.87-1.93l2.49-66.45c0-.11,0-.23-.02-.34l-2.25-15.49c-.16-1.08.62-2.06,1.71-2.12,11.53-.59,69.57-3.42,89.82-1.75,5.66.47,16.38.91,29.66,1.3"/>
  <path class="st0" d="M114.79,65.47v13.76h-3.01v-13.76h3.01ZM117.34,73.64h-3.51v-2.53h3.37c.54,0,.96-.13,1.25-.39.28-.26.43-.64.43-1.13s-.14-.85-.43-1.1c-.29-.25-.7-.37-1.25-.37h-3.16v-2.64h3.48c1.39,0,2.47.34,3.25,1.02.79.68,1.19,1.61,1.19,2.79,0,.81-.2,1.49-.6,2.05-.4.56-.97.95-1.73,1.19v-.26c.81.17,1.42.53,1.84,1.08.43.55.65,1.25.65,2.1,0,.81-.18,1.49-.54,2.06-.35.57-.87,1-1.56,1.3-.68.29-1.52.43-2.51.43h-3.48v-2.64h3.31c.56,0,.98-.12,1.26-.37.28-.26.43-.64.43-1.15,0-.47-.15-.82-.45-1.06-.28-.25-.7-.37-1.25-.37ZM123.31,74.06v-8.59h3.01v8.39c0,.87.23,1.53.69,1.99.46.46,1.11.69,1.95.69s1.51-.24,1.97-.71c.47-.47.71-1.13.71-1.97v-8.39h3.01v8.59c0,1.09-.24,2.04-.71,2.85-.46.81-1.12,1.43-1.97,1.88-.86.45-1.86.67-3.01.67s-2.14-.22-2.99-.65c-.84-.45-1.5-1.07-1.97-1.88-.46-.82-.69-1.77-.69-2.86ZM140.09,74.01l-4.65-8.54h3.37l2.31,4.46c.11.21.21.41.28.6.09.17.17.35.24.52.06-.11.12-.22.17-.33.05-.12.11-.25.17-.37.06-.14.13-.28.2-.43l2.31-4.44h3.27l-4.65,8.54v5.23h-3.01v-5.23ZM155.77,79.23h-2.98v-13.76h2.98l6.73,10.15h-.93v-10.15h2.98v13.76h-2.98l-6.73-10.14h.93v10.14ZM179.39,72.33c0,1.4-.29,2.64-.86,3.72-.57,1.07-1.36,1.9-2.38,2.51-1.02.6-2.19.89-3.53.89s-2.5-.3-3.51-.89c-1-.61-1.79-1.44-2.36-2.51-.56-1.07-.84-2.3-.84-3.7s.28-2.63.86-3.7c.57-1.08,1.36-1.92,2.36-2.51,1.02-.61,2.19-.91,3.51-.91s2.51.3,3.51.91c1.02.6,1.81,1.43,2.38,2.49.57,1.07.86,2.3.86,3.7ZM176.21,72.33c0-.88-.14-1.63-.43-2.25-.29-.63-.69-1.12-1.23-1.45-.52-.33-1.15-.5-1.9-.5s-1.38.17-1.92.5c-.53.33-.94.82-1.23,1.45-.29.62-.43,1.37-.43,2.25s.14,1.64.43,2.27c.28.63.69,1.12,1.23,1.45.53.33,1.17.5,1.92.5s1.38-.17,1.9-.5c.53-.35.94-.84,1.23-1.47.29-.63.43-1.38.43-2.25ZM183.16,79.23l-4.13-13.76h3.14l1.8,5.97c.12.41.24.84.35,1.3.11.45.22,1.01.34,1.69.11-.68.22-1.25.34-1.69.11-.45.23-.88.35-1.3l1.69-5.97h3.37l1.62,5.97c.11.42.22.86.34,1.32.11.46.23,1.02.35,1.67.14-.69.26-1.26.37-1.69.11-.45.23-.87.35-1.26l1.84-6.01h3.07l-4.2,13.76h-2.94l-2.51-9.04-2.59,9.04h-2.96Z"/>
</svg>